<svg width="100" height="100" viewBox="0 0 100 100" fill="none" xmlns="http://www.w3.org/2000/svg">
<g clip-path="url(#clip0)">
<path d="M30.5084 22.4219C30.5084 30.2403 24.2072 36.611 16.417 36.7313L19.7809 39.6283H73.1918C82.7359 39.6283 90.4729 31.8912 90.4729 22.3473H30.5064C30.5066 22.3723 30.5084 22.3969 30.5084 22.4219Z" fill="#ECF3FB"/>
<path d="M73.1918 5.06604H19.7809L16.417 8.11272C24.1822 8.23264 30.4664 14.5633 30.5064 22.3473H90.4729C90.4729 12.8031 82.7359 5.06604 73.1918 5.06604Z" fill="#F7FCFF"/>
<path d="M79.2691 25.0929H30.2549C29.8435 27.2624 28.943 29.2603 27.6693 30.9656H79.2691V25.0929Z" fill="#E0E6F5"/>
<path d="M79.4469 13.573H27.4322C28.7682 15.265 29.7309 17.2634 30.1945 19.4457H79.4469V13.573Z" fill="#ECF3FB"/>
<path d="M74.3484 2.22888H16.417V8.10154H74.3484C82.2184 8.10154 88.624 14.4859 88.6615 22.3472H94.535C94.4977 11.2474 85.4568 2.22888 74.3484 2.22888Z" fill="#89CE6D"/>
<path d="M88.6617 22.3473C88.6619 22.3705 88.6635 22.3932 88.6635 22.4164C88.6635 30.3098 82.2418 36.7313 74.3486 36.7313H16.4172V42.6039L42.0789 44.7354L74.3486 42.6039C85.4801 42.6039 94.5361 33.5479 94.5361 22.4164C94.5361 22.3934 94.5353 22.3703 94.5351 22.3473H88.6617Z" fill="#5EB16A"/>
<path d="M100 48.4766L95.1033 45.6956H15.7547C10.0099 45.6956 5.35272 50.3526 5.35272 56.0975C5.35272 56.1975 5.35741 56.2965 5.36034 56.3958L47.3039 61.4475L91.9096 56.3958C91.9142 52.0284 95.5416 48.4766 100 48.4766Z" fill="#FFF7E7"/>
<path d="M91.9092 56.4046C91.9092 56.4017 91.9094 56.3987 91.9094 56.396H5.36034C5.51873 62.0024 10.1099 66.4995 15.7547 66.4995H96.5871L100 64.3323C95.5387 64.3323 91.9092 60.7759 91.9092 56.4046Z" fill="#FFE6CE"/>
<path d="M13.7918 48.4765H100V42.6039H13.7918C6.18691 42.6039 0 48.7908 0 56.3957L3.43926 57.8379L5.87266 56.3957C5.87266 52.0291 9.42519 48.4765 13.7918 48.4765Z" fill="#6AE1DB"/>
<path d="M5.87266 56.3956H0C0 64.0005 6.18691 70.1874 13.7918 70.1874L55.476 73.279L100 70.1874V64.3148H13.7918C9.42519 64.315 5.87266 60.7624 5.87266 56.3956Z" fill="#21C8C7"/>
<path d="M92.5113 53.4075H77.3639L70.1912 54.659L62.8938 53.4075H13.8242V56.3958L52.6764 57.5868L91.9094 56.3958C91.9106 55.3387 92.1254 54.3301 92.5113 53.4075Z" fill="#FFE6CE"/>
<path d="M92.4625 59.2801C92.1066 58.3879 91.9092 57.4185 91.9092 56.4045C91.9092 56.4015 91.9094 56.3986 91.9094 56.3959H13.8242V59.2803H92.4625V59.2801Z" fill="#FCCAB4"/>
<path d="M100 76.0602L95.1033 73.2792H15.7547C10.0099 73.2792 5.35272 77.9362 5.35272 83.6811C5.35272 83.7811 5.35741 83.8801 5.36034 83.9794L47.3039 89.0311L91.9096 83.9794C91.9142 79.612 95.5416 76.0602 100 76.0602Z" fill="#F7FCFF"/>
<path d="M91.9092 83.9882C91.9092 83.9853 91.9094 83.9823 91.9094 83.9796H5.36034C5.51873 89.5861 10.1099 94.0831 15.7547 94.0831H96.5871L100 91.9161C95.5387 91.9161 91.9092 88.3597 91.9092 83.9882Z" fill="#ECF3FB"/>
<path d="M13.7918 76.0602H100V70.1875H13.7918C6.18691 70.1875 0 76.3746 0 83.9793L3.43926 85.4215L5.87266 83.9793C5.87266 79.6127 9.42519 76.0602 13.7918 76.0602Z" fill="#FD465F"/>
<path d="M5.87266 83.9792H0C0 91.5841 6.18691 97.771 13.7918 97.771H100V91.8984H13.7918C9.42519 91.8986 5.87266 88.346 5.87266 83.9792Z" fill="#CE0C51"/>
<path d="M92.5113 80.991H13.8242V83.9792L52.6764 85.1703L91.9094 83.9792C91.9106 82.9222 92.1254 81.9136 92.5113 80.991Z" fill="#ECF3FB"/>
<path d="M92.4625 86.8637C92.1066 85.9715 91.9092 85.0021 91.9092 83.9881C91.9092 83.9852 91.9094 83.9822 91.9094 83.9795H13.8242V86.8639H92.4625V86.8637Z" fill="#E0E6F5"/>
<path d="M77.3641 53.4314H62.894V64.315L70.1289 66.4992L77.3641 64.315V53.4314Z" fill="#F8BD3F"/>
<path d="M62.894 64.3149V83.9792L70.0213 80.9909L77.3641 83.9792V64.3149H62.894Z" fill="#FD9326"/>
</g>
<defs>
<clipPath id="clip0">
<rect width="100" height="100" fill="white"/>
</clipPath>
</defs>
</svg>
